solid model
  facet normal 0 0 -400
    outer loop
      vertex -10 -10 -10
      vertex 10 10 -10
      vertex 10 -10 -10
    endloop
  endfacet
  facet normal 0 0 -400
    outer loop
      vertex -10 -10 -10
      vertex -10 10 -10
      vertex 10 10 -10
    endloop
  endfacet
  facet normal 0 0 400
    outer loop
      vertex -10 -10 10
      vertex 10 -10 10
      vertex 10 10 10
    endloop
  endfacet
  facet normal 0 0 400
    outer loop
      vertex -10 -10 10
      vertex 10 10 10
      vertex -10 10 10
    endloop
  endfacet
  facet normal 0 -400 0
    outer loop
      vertex -10 -10 -10
      vertex 10 -10 -10
      vertex 10 -10 10
    endloop
  endfacet
  facet normal 0 -400 0
    outer loop
      vertex -10 -10 -10
      vertex 10 -10 10
      vertex -10 -10 10
    endloop
  endfacet
  facet normal 400 0 0
    outer loop
      vertex 10 -10 -10
      vertex 10 10 -10
      vertex 10 10 10
    endloop
  endfacet
  facet normal 400 0 0
    outer loop
      vertex 10 -10 -10
      vertex 10 10 10
      vertex 10 -10 10
    endloop
  endfacet
  facet normal 0 400 0
    outer loop
      vertex 10 10 -10
      vertex -10 10 -10
      vertex -10 10 10
    endloop
  endfacet
  facet normal 0 400 0
    outer loop
      vertex 10 10 -10
      vertex -10 10 10
      vertex 10 10 10
    endloop
  endfacet
  facet normal -400 0 0
    outer loop
      vertex -10 10 -10
      vertex -10 -10 -10
      vertex -10 -10 10
    endloop
  endfacet
  facet normal -400 0 0
    outer loop
      vertex -10 10 -10
      vertex -10 -10 10
      vertex -10 10 10
    endloop
  endfacet
endsolid model
